<svg width="36" height="41" viewBox="0 0 36 41" fill="none" xmlns="http://www.w3.org/2000/svg">
<path d="M0.180054 40.0574V28.0734C0.180054 27.4449 0.353304 26.8476 0.699804 26.2814C1.04814 25.7167 1.54039 25.2656 2.17655 24.928L5.46555 23.101C5.78639 25.8295 6.20255 28.1908 6.71405 30.185C7.22555 32.1792 8.05605 34.4426 9.20555 36.975L0.180054 40.0574ZM11.3203 35.8854C10.2093 33.4976 9.35314 31.0515 8.7518 28.547C8.15047 26.0426 7.84797 23.4946 7.8443 20.903C7.8443 16.7886 8.67114 13.0086 10.3248 9.56302C11.9785 6.11747 14.5369 3.06314 18.0001 0.400024C21.4651 3.06469 24.0235 6.1198 25.6753 9.56536C27.3271 13.0109 28.1531 16.7901 28.1531 20.903C28.1531 23.4868 27.8515 26.0286 27.2483 28.5284C26.6451 31.0281 25.789 33.4805 24.6798 35.8854H11.3203ZM18.0001 21.1667C19.1606 21.1667 20.1377 20.8291 20.9316 20.154C21.7254 19.4789 22.1232 18.6498 22.1251 17.6667C22.1269 16.6836 21.7291 15.8545 20.9316 15.1794C20.1341 14.5042 19.1569 14.1667 18.0001 14.1667C16.8432 14.1667 15.8661 14.5042 15.0686 15.1794C14.2711 15.8545 13.8732 16.6836 13.8751 17.6667C13.8769 18.6498 14.2747 19.4789 15.0686 20.154C15.8624 20.8291 16.8396 21.1667 18.0001 21.1667ZM35.7706 40.0574L26.7423 37.0194C27.8918 34.4885 28.7223 32.2181 29.2338 30.2084C29.7453 28.1986 30.1606 25.8295 30.4796 23.101L33.7713 24.9724C34.4093 25.3099 34.9016 25.761 35.2481 26.3257C35.5964 26.8919 35.7706 27.4892 35.7706 28.1177V40.0574Z" fill="#F8F8F8"/>
</svg>
