<svg width="34" height="34" viewBox="0 0 34 34" fill="none" xmlns="http://www.w3.org/2000/svg">
<path fill-rule="evenodd" clip-rule="evenodd" d="M17 0.333252C26.19 0.333252 33.6667 7.80992 33.6667 16.9999C33.6667 26.1899 26.19 33.6666 17 33.6666C7.81004 33.6666 0.333374 26.1899 0.333374 16.9999C0.333374 7.80992 7.81004 0.333252 17 0.333252ZM17 2.83325C9.18837 2.83325 2.83337 9.18825 2.83337 16.9999C2.83337 24.8116 9.18837 31.1666 17 31.1666C24.8117 31.1666 31.1667 24.8116 31.1667 16.9999C31.1667 9.18825 24.8117 2.83325 17 2.83325ZM20.289 10.3328C20.7774 10.8228 20.774 11.6144 20.2857 12.1011L15.3657 16.9994L20.2857 21.8994C20.774 22.3861 20.7774 23.1761 20.289 23.6661C20.0457 23.9128 19.724 24.0344 19.404 24.0344C19.0857 24.0344 18.7657 23.9128 18.5224 23.6694L12.7107 17.8861C12.4757 17.6511 12.344 17.3328 12.344 16.9994C12.344 16.6678 12.4757 16.3494 12.7107 16.1144L18.5224 10.3294C19.0107 9.84275 19.8007 9.84275 20.289 10.3328Z" fill="#56697A"/>
</svg>
