<svg width="45" height="45" viewBox="0 0 45 45" fill="none" xmlns="http://www.w3.org/2000/svg">
<path d="M27.1875 20.1562H15.9375C15.1687 20.1562 14.5312 19.5187 14.5312 18.75C14.5312 17.9812 15.1687 17.3438 15.9375 17.3438H27.1875C27.9562 17.3438 28.5937 17.9812 28.5937 18.75C28.5937 19.5187 27.9562 20.1562 27.1875 20.1562Z" fill="#F59620"/>
<path d="M21.5625 25.7812H15.9375C15.1687 25.7812 14.5312 25.1437 14.5312 24.375C14.5312 23.6062 15.1687 22.9688 15.9375 22.9688H21.5625C22.3313 22.9688 22.9688 23.6062 22.9688 24.375C22.9688 25.1437 22.3313 25.7812 21.5625 25.7812Z" fill="#F59620"/>
<path opacity="0.4" d="M21.5625 39.375C31.4 39.375 39.375 31.4 39.375 21.5625C39.375 11.7249 31.4 3.75 21.5625 3.75C11.7249 3.75 3.75 11.7249 3.75 21.5625C3.75 31.4 11.7249 39.375 21.5625 39.375Z" fill="#F59620"/>
<path d="M39.9384 41.2502C39.6009 41.2502 39.2634 41.1189 39.0197 40.8752L35.5322 37.3877C35.0259 36.8814 35.0259 36.0564 35.5322 35.5314C36.0384 35.0252 36.8634 35.0252 37.3884 35.5314L40.8759 39.0189C41.3822 39.5252 41.3822 40.3502 40.8759 40.8752C40.6134 41.1189 40.2759 41.2502 39.9384 41.2502Z" fill="#F59620"/>
</svg>
