<svg width="45" height="45" viewBox="0 0 45 45" fill="none" xmlns="http://www.w3.org/2000/svg">
<path d="M11.25 13.5H4.5C2.025 13.5 0 11.475 0 9V4.5C0 2.025 2.025 0 4.5 0H11.25C13.725 0 15.75 2.025 15.75 4.5V9C15.75 11.475 13.725 13.5 11.25 13.5Z" fill="#F59620"/>
<path d="M42.3 11.25H34.2C32.715 11.25 31.5 10.035 31.5 8.54996V4.95001C31.5 3.46501 32.715 2.24998 34.2 2.24998H42.3C43.785 2.24998 45 3.46501 45 4.95001V8.54996C45 10.035 43.785 11.25 42.3 11.25Z" fill="#F59620"/>
<path d="M42.3 28.125H34.2C32.715 28.125 31.5 26.91 31.5 25.425V21.825C31.5 20.34 32.715 19.125 34.2 19.125H42.3C43.785 19.125 45 20.34 45 21.825V25.425C45 26.91 43.785 28.125 42.3 28.125Z" fill="#F59620"/>
<path opacity="0.37" d="M31.5 25.3125C32.4225 25.3125 33.1875 24.5475 33.1875 23.625C33.1875 22.7025 32.4225 21.9375 31.5 21.9375H25.3125V8.43748H31.5C32.4225 8.43748 33.1875 7.67248 33.1875 6.74998C33.1875 5.82748 32.4225 5.06248 31.5 5.06248H15.75C14.8275 5.06248 14.0625 5.82748 14.0625 6.74998C14.0625 7.67248 14.8275 8.43748 15.75 8.43748H21.9375V36C21.9375 39.42 24.705 42.1875 28.125 42.1875H31.5C32.4225 42.1875 33.1875 41.4225 33.1875 40.5C33.1875 39.5775 32.4225 38.8125 31.5 38.8125H28.125C26.5725 38.8125 25.3125 37.5525 25.3125 36V25.3125H31.5Z" fill="#F59620"/>
<path d="M42.3 45H34.2C32.715 45 31.5 43.785 31.5 42.3V38.7C31.5 37.215 32.715 36 34.2 36H42.3C43.785 36 45 37.215 45 38.7V42.3C45 43.785 43.785 45 42.3 45Z" fill="#F59620"/>
</svg>
