<svg width="38" height="45" viewBox="0 0 38 45" fill="none" xmlns="http://www.w3.org/2000/svg">
<path opacity="0.4" d="M34.4848 27.3865C32.618 29.0793 30.1433 30.0221 27.6036 30.0006H6.63431C-2.20058 29.3792 -2.22229 16.7158 6.63431 16.0944H6.72116C0.664811 -0.533225 26.2577 -7.15431 29.1882 10.2875C37.3719 11.316 40.6931 22.0511 34.4848 27.3865Z" fill="#F59620"/>
<path d="M33.5062 40.7145C33.5062 41.5931 32.7681 42.3216 31.8781 42.3216H23.1952C23.0867 42.3216 22.9998 42.3216 22.8913 42.2787C22.2618 43.8644 20.6772 45 18.8537 45C17.0303 45 15.4457 43.8644 14.8162 42.2787C14.7076 42.3216 14.6208 42.3216 14.5123 42.3216H5.82934C4.93934 42.3216 4.20129 41.5931 4.20129 40.7145C4.20129 39.836 4.93934 39.1075 5.82934 39.1075H14.5123C14.6208 39.1075 14.7076 39.1075 14.8162 39.1503C15.2503 38.0361 16.1403 37.1576 17.2691 36.7291C17.2257 36.6219 17.2257 36.5362 17.2257 36.4291V30.0009H20.4818V36.4291C20.4818 36.5362 20.4818 36.6219 20.4384 36.7291C21.5672 37.1576 22.4572 38.0361 22.8913 39.1503C22.9998 39.1075 23.0867 39.1075 23.1952 39.1075H31.8781C32.7681 39.1075 33.5062 39.836 33.5062 40.7145Z" fill="#F59620"/>
</svg>
