<svg width="244" height="548" viewBox="0 0 244 548" fill="none" xmlns="http://www.w3.org/2000/svg">
<path d="M-294.112 273.846C-294.112 425.087 -173.651 547.692 -25.0558 547.692C123.54 547.692 244 425.087 244 273.846C244 122.605 123.54 0 -25.0558 0C-173.651 0 -294.112 122.605 -294.112 273.846ZM122.1 273.846C122.1 356.565 56.2164 423.622 -25.0558 423.622C-106.328 423.622 -172.212 356.565 -172.212 273.846C-172.212 191.127 -106.328 124.07 -25.0558 124.07C56.2164 124.07 122.1 191.127 122.1 273.846Z" fill="#56697A" fill-opacity="0.2"/>
<ellipse cx="93.5016" cy="95.1664" rx="93.5016" ry="95.1664" transform="matrix(-1 0 0 1 68.4458 178.68)" fill="#F59620" fill-opacity="0.32"/>
</svg>
