<svg width="44" height="45" viewBox="0 0 44 45" fill="none" xmlns="http://www.w3.org/2000/svg">
<path d="M42.248 22.0951L41.888 21.6001C41.258 20.8351 40.5155 20.2276 39.6605 19.7776C38.5131 19.1251 37.2081 18.7876 35.8581 18.7876H7.8457C6.4957 18.7876 5.21321 19.1251 4.04322 19.7776C3.16572 20.2501 2.37823 20.9026 1.72573 21.7126C0.443235 23.3551 -0.164263 25.3801 0.0382364 27.4051L0.870733 37.9125C1.16323 41.085 1.54573 45 8.67819 45H35.0481C42.1805 45 42.5405 41.085 42.8555 37.89L43.688 27.4276C43.8905 25.5376 43.3955 23.6476 42.248 22.0951ZM27.2406 34.515H16.4632C15.5857 34.515 14.8882 33.795 14.8882 32.94C14.8882 32.085 15.5857 31.3651 16.4632 31.3651H27.2406C28.1181 31.3651 28.8156 32.085 28.8156 32.94C28.8156 33.8175 28.1181 34.515 27.2406 34.515Z" fill="#F59620"/>
<path opacity="0.4" d="M2.46973 20.9474C2.96472 20.4974 3.45972 20.0924 4.04472 19.7774C5.19221 19.1249 6.49721 18.7874 7.8472 18.7874H35.8821C37.2321 18.7874 38.5146 19.1249 39.6846 19.7774C40.2696 20.0924 40.7871 20.4974 41.2596 20.9699V19.7774V17.5949C41.2596 9.56245 38.8071 7.10996 30.7747 7.10996H25.4197C24.4297 7.10996 24.4072 7.08747 23.8222 6.32247L21.1222 2.69999C19.8397 1.035 18.8272 0 15.6097 0H12.9547C4.92221 0 2.46973 2.45249 2.46973 10.4849V19.7999V20.9474Z" fill="#F59620"/>
</svg>
