<svg width="45" height="45" viewBox="0 0 45 45" fill="none" xmlns="http://www.w3.org/2000/svg">
<path opacity="0.4" d="M45 13.5V31.9275C45 40.1175 40.1175 45 31.9275 45H13.0725C4.8825 45 0 40.1175 0 31.9275V13.5225L45 13.5Z" fill="#F59620"/>
<path d="M15.7522 35.4373C15.5047 35.4373 15.2347 35.3698 15.0097 35.2573C13.2772 34.3798 11.7922 33.0748 10.7122 31.4548C9.81223 30.1048 9.81223 28.3723 10.7122 27.0223C11.7922 25.4023 13.2772 24.0973 15.0097 23.2423C15.8422 22.8148 16.8547 23.1748 17.2822 24.0073C17.7097 24.8398 17.3722 25.8523 16.5172 26.2798C15.3022 26.8873 14.2672 27.8098 13.5247 28.9348C13.3897 29.1373 13.3897 29.4073 13.5247 29.6323C14.2672 30.7573 15.3022 31.6798 16.5172 32.2873C17.3497 32.7148 17.6872 33.7273 17.2822 34.5598C16.9672 35.0998 16.3597 35.4373 15.7522 35.4373Z" fill="#F59620"/>
<path d="M29.7208 35.4374C29.0908 35.4374 28.5058 35.0999 28.2133 34.5149C27.7858 33.6824 28.1233 32.6699 28.9783 32.2424C30.1933 31.6349 31.2283 30.7124 31.9708 29.5874C32.1058 29.3849 32.1058 29.1149 31.9708 28.8899C31.2283 27.7649 30.1933 26.8424 28.9783 26.2349C28.1458 25.8074 27.8083 24.7949 28.2133 23.9624C28.6408 23.1299 29.6533 22.7924 30.4858 23.1974C32.2183 24.0749 33.7033 25.3799 34.7833 26.9999C35.6833 28.3499 35.6833 30.0824 34.7833 31.4324C33.7033 33.0524 32.2183 34.3574 30.4858 35.2124C30.2158 35.3699 29.9683 35.4374 29.7208 35.4374Z" fill="#F59620"/>
<path d="M45 13.0725V13.5L0 13.5225V13.0725C0 4.8825 4.8825 0 13.0725 0H31.9275C40.1175 0 45 4.8825 45 13.0725Z" fill="#F59620"/>
</svg>
